<?xml version="1.0" encoding="utf-8"?>
<svg viewBox="0 0 512 512" xmlns="http://www.w3.org/2000/svg">
  <path d="M 510.748 231.598 C 507.748 188.078 501.418 145.148 485.498 104.178 C 477.598 83.838 467.808 64.548 450.918 49.878 C 435.808 36.768 417.998 28.448 399.268 21.978 C 388.998 17.138 377.898 14.558 366.878 11.978 C 321.838 1.658 276.198 -1.582 230.068 0.648 C 192.578 2.448 155.628 7.468 119.798 18.978 C 99.688 25.408 80.438 33.708 63.668 46.978 C 49.998 57.688 40.628 71.758 33.118 87.178 C 20.498 113.118 13.228 140.728 8.108 168.978 C 3.416 194.693 0.705 220.729 -0.002 246.858 C -0.002 247.978 0.398 300.108 0.998 307.658 C 4.238 348.998 10.698 389.578 28.398 427.658 C 30.288 431.718 32.128 435.838 35.068 439.308 C 43.918 455.648 57.138 467.468 73.268 476.308 C 98.708 490.308 126.268 497.768 154.578 503.158 C 175.891 507.166 197.438 509.811 219.088 511.078 C 246.574 512.58 274.129 512.286 301.578 510.198 C 340.158 507.008 377.938 500.398 414.578 487.258 C 454.578 472.908 479.718 445.448 492.638 405.518 C 502.768 374.238 508.278 342.218 510.558 309.518 C 512.418 283.58 512.482 257.545 510.748 231.598 Z" style="fill: rgb(51, 51, 51);" transform="matrix(1, 0, 0, 1, 0, 7.105427357601002e-15)"/>
  <path d="m510.75 231.62c-3-43.52-9.33-86.45-25.25-127.42-7.9-20.34-17.69-39.63-34.58-54.3q-3.53-3.06-7.22-5.78.39 8.88.39 17.88c0 208.69-157 377.86-350.73 377.86a328.35 328.35 0 0 1 -61.85-5.81 31.76 31.76 0 0 0 3.55 5.29c8.85 16.34 22.07 28.16 38.2 37 25.44 14 53 21.46 81.31 26.85a509 509 0 0 0 64.52 7.87 632.52 632.52 0 0 0 82.49-.88c38.58-3.19 76.36-9.8 113-22.94 40-14.35 65.14-41.81 78.06-81.74 10.13-31.28 15.64-63.3 17.92-96a563.7 563.7 0 0 0 .19-77.88z" style="fill: rgb(34, 34, 34);" transform="matrix(1, 0, 0, 1, 0, 7.105427357601002e-15)"/>
  <path d="M 344.108 381.223 C 319.253 410.844 271.538 432.407 225.377 432.407 C 165.651 432.407 159.528 397.281 173.412 332.023 L 203.705 218.783 L 155.032 218.783 L 155.125 188.995 L 317.41 79.592 L 295.751 181.481 L 376.968 181.481 L 366.91 218.783 L 294.057 218.783 L 269.202 306.431 C 256.82 364.652 265.81 386.21 302.918 386.21 C 313.956 386.21 332.814 384.708 343.692 380.71 L 344.077 381.223 L 344.108 381.223 Z" style="fill: rgb(255, 255, 255);" transform="matrix(1, 0, 0, 1, 0, 7.105427357601002e-15)"/>
</svg>
