<?xml version="1.0" encoding="utf-8"?>
<svg viewBox="0.1407 250.0405 1279.7546 138.9595" xmlns="http://www.w3.org/2000/svg">
    <g fill="#f0f0f0">
        <path d="M 75.8 251.1 C 48.7 254.4 25.1 266.1 12.7 282.1 C -4.8 304.9 -3.9 339.7 14.7 358.7 C 23.8 368 37.9 372.9 52.1 371.5 C 71.7 369.7 84.5 361.4 91.9 346 C 95.4 338.7 95.5 338.2 95.5 326.5 C 95.5 315.1 95.3 314.2 92.3 307.8 C 86.2 294.8 75.7 286.9 64.6 286.8 C 51 286.7 45.9 298.5 58.1 302.2 C 61.6 303.2 63.3 303.1 69.2 301.6 L 76.2 299.8 L 78.6 302.1 C 79.9 303.4 82.3 306.9 83.8 309.9 C 86.3 315 86.5 316.5 86.5 327 C 86.5 337.5 86.3 338.9 83.8 343.5 C 76.9 356.8 62.3 363.9 44.5 362.7 C 38.6 362.4 34.6 361.5 30.7 359.7 C 17.2 353.6 9 338.2 9 319.5 C 9 304 13.6 293.2 25.1 281.8 C 31.2 275.7 34.6 273.2 42.1 269.6 C 56.5 262.7 68.9 259.9 89.5 259.3 C 117.1 258.4 139.2 262.8 172.2 275.6 C 177 277.5 181.3 279 181.8 279 C 182.2 279 184.1 277.7 186 276.2 L 189.4 273.3 L 176.4 268.3 C 144.4 255.7 124.8 251.2 100 250.5 C 90.9 250.3 80.1 250.5 75.8 251.1 Z"/>
        <path d="M 1166.3 251 C 1149.5 252.8 1128 258.7 1103.6 268.3 L 1090.6 273.3 L 1094 276.2 C 1095.9 277.7 1097.8 279 1098.2 279 C 1098.6 279 1101.3 278 1104.2 276.9 C 1123.9 269 1145.4 262.9 1162.2 260.4 C 1178.8 258 1203.7 258.9 1218 262.5 C 1234 266.4 1245.5 272.5 1254.9 281.8 C 1266.4 293.2 1271 304 1271 319.5 C 1271 328.8 1268.6 338.6 1264.6 345.4 C 1258.1 356.5 1249.1 361.9 1235.5 362.7 C 1217.7 363.9 1203.1 356.8 1196.2 343.5 C 1193.7 338.9 1193.5 337.5 1193.5 327 C 1193.5 316.5 1193.7 315 1196.2 309.9 C 1197.7 306.9 1200.1 303.4 1201.4 302.1 L 1203.8 299.8 L 1210.8 301.6 C 1216.7 303.1 1218.4 303.2 1221.9 302.2 C 1234.1 298.5 1229 286.7 1215.4 286.8 C 1204.3 286.9 1193.8 294.8 1187.7 307.8 C 1184.7 314.2 1184.5 315.1 1184.5 326.5 C 1184.5 338.2 1184.6 338.7 1188.1 346 C 1193.8 357.9 1203.8 366.3 1216.4 369.6 C 1241.2 376.2 1263.7 367.2 1273.8 346.7 C 1283.9 326.2 1281.3 300.8 1267.1 282 C 1249.5 258.6 1209.8 246.4 1166.3 251 Z"/>
        <path d="M 454.8 253.9 C 447.3 256.3 443 259.1 437.6 265.1 C 431.5 271.9 429.5 278.1 429.6 290 C 429.7 300.5 432.7 311.3 437.6 319.1 C 439 321.4 440 323.3 439.8 323.5 C 439.6 323.7 432.7 320 424.5 315.3 C 385.6 293 350.3 275.9 327 268 C 289.6 255.2 249.2 253.8 217 264.2 C 192.5 272 172.6 288.5 162.3 309.5 C 157.7 318.8 156.5 324.4 156.6 336 C 156.7 344.9 157.1 347.6 159.3 353.4 C 167.9 375.4 187.4 389 210.5 389 C 220.1 389 227.1 387.2 236.5 382.6 C 249.7 376 259.5 366.2 260 359 C 260.5 352.8 259.9 350.7 256.6 347.4 C 254 344.8 252.4 344 249.7 344 C 242.3 344 238.6 350.8 240 361.9 C 240.7 367.6 240.5 367.9 233 372.2 C 225.3 376.6 217.8 378.3 207.6 377.8 C 199.9 377.5 197.5 376.9 191.7 374.1 C 173 365.1 163.2 343.9 168.5 323.7 C 174.4 301 198 279.7 222.8 274.5 C 232.1 272.6 253.8 272.5 264.5 274.4 C 297.2 280.2 330 293.5 409.5 333.2 C 459.9 358.5 477.1 365.5 503.3 371.9 C 530.1 378.5 557.8 380.2 576.5 376.6 C 607.3 370.6 627.9 352.7 634.6 326.1 C 637.1 316.1 636.2 301.2 632.7 293.8 C 623.9 275.6 599 267.5 574.8 275 C 563.3 278.5 556 285.6 556 293.2 C 556 302.1 568.4 303.8 575.6 295.8 C 576.8 294.6 578.8 291.5 580 289 C 581.3 286.5 582.8 284.2 583.4 283.8 C 585.4 282.4 600.5 283 605.8 284.5 C 613.1 286.7 619 291.5 622.3 298 C 625 303.2 625.1 304.1 624.8 314.5 C 624.5 324.8 624.3 326 620.7 333.4 C 613.5 348.5 598.6 359.8 578.5 365.2 C 566.7 368.3 540.9 368.4 525.8 365.2 C 483.6 356.4 448.8 331.5 440.2 304 C 437.6 295.6 437.9 280.7 440.7 275.4 C 443.6 270 450 264.5 455.8 262.6 C 460.5 260.9 476.5 260.4 478.6 261.8 C 479.2 262.2 481 265.3 482.5 268.8 C 485.6 275.7 488 278 492.2 278 C 498 278 500.4 272 497.2 265.5 C 491.8 254.3 471.2 248.7 454.8 253.9 Z"/>
        <path d="M 801.5 252.6 C 786.3 256.4 776.5 269.4 783.6 276.4 C 785.5 278.4 789.9 278.5 792.6 276.6 C 793.7 275.8 795.9 272.3 797.5 268.8 C 799 265.3 800.8 262.2 801.4 261.8 C 803.5 260.4 819.5 260.9 824.2 262.6 C 830 264.5 836.4 270 839.3 275.4 C 842.1 280.7 842.4 295.6 839.8 304 C 831.2 331.5 796.4 356.4 754.2 365.2 C 739.1 368.4 713.3 368.3 701.5 365.2 C 681.4 359.8 666.5 348.5 659.3 333.4 C 655.7 326 655.5 324.8 655.2 314.5 C 654.9 304.1 655 303.2 657.7 298 C 661 291.5 666.9 286.7 674.2 284.5 C 679.5 283 694.7 282.4 696.6 283.8 C 697.1 284.2 698.6 286.5 699.9 289 C 704.1 297.2 709 301 715.5 301 C 720.2 301 724 297.4 724 292.8 C 724 285.6 716.4 278.4 705.2 275 C 681 267.5 656.1 275.6 647.3 293.8 C 643.8 301.2 642.9 316.1 645.4 326.1 C 650.7 347.3 665.5 363.6 686.9 371.9 C 709.5 380.6 741 380.6 776.7 371.9 C 802.9 365.5 820.1 358.5 870.5 333.2 C 950 293.5 982.8 280.2 1015.5 274.4 C 1027.5 272.3 1048.7 272.6 1058.7 275 C 1083.6 280.9 1105.7 301.4 1111.5 323.7 C 1116.8 343.9 1107 365.1 1088.3 374.1 C 1075.2 380.4 1056.9 379 1044.6 370.8 L 1039.7 367.5 L 1039.9 358.7 C 1040.1 350.2 1040 349.9 1037.1 347 C 1029.4 339.2 1017.4 348 1020 359.5 C 1021.3 365.1 1025.5 370.6 1032.3 375.7 C 1044.4 384.7 1056.4 389 1069.5 389 C 1108.4 389 1134.3 350.2 1119.6 313.9 C 1103.9 275.1 1058.1 253.1 1002.7 257.9 C 975.7 260.1 955.1 265.8 925.4 279 C 908.3 286.6 879.6 301.6 855.5 315.3 C 847.3 320 840.4 323.7 840.2 323.5 C 840 323.3 841 321.4 842.4 319.1 C 847.3 311.3 850.3 300.5 850.4 290 C 850.5 276.8 848.5 271.4 840.6 263.4 C 832.5 255.4 826.1 252.8 813 252.4 C 807.8 252.3 802.6 252.3 801.5 252.6 Z"/>
        <path d="M 205.8 284 C 203.8 285.1 201.9 286.4 201.6 286.9 C 200.7 288.2 251.4 310.6 282 322.3 C 290 325.3 306.9 331.4 319.5 335.8 C 332.2 340.2 343.2 344.1 344 344.4 C 344.8 344.8 346.3 346.3 347.2 348 C 350.5 353.9 362 354 362.8 348.2 C 363.5 343.2 357.4 339.5 336.8 332.5 C 305.8 321.9 257 303 234.2 292.9 C 220.7 286.9 209.7 282 209.6 282 C 209.5 282.1 207.8 283 205.8 284 Z"/>
        <path d="M 1045.4 293 C 1023 303 974.7 321.7 943.2 332.5 C 922.6 339.5 916.5 343.2 917.2 348.2 C 918 354 929.5 353.9 932.8 348 C 933.7 346.3 935.2 344.8 936 344.4 C 936.8 344.1 947.9 340.2 960.5 335.8 C 973.2 331.4 990 325.3 998 322.3 C 1028.7 310.5 1079.3 288.2 1078.4 286.9 C 1077.9 286 1070.4 281.9 1069.8 282.1 C 1069.6 282.1 1058.6 287 1045.4 293 Z"/>
        <path d="M 308 316 C 308 316.3 311.7 317.9 316.3 319.5 C 324.4 322.5 324.8 322.5 350.3 323 C 364.4 323.3 376 323.2 376 322.9 C 376 322.5 373.2 321 369.8 319.4 L 363.5 316.5 L 335.7 316 C 320.5 315.7 308 315.7 308 316 Z"/>
        <path d="M 943.5 316 L 916.5 316.5 L 910.3 319.4 C 906.8 321 904 322.5 904 322.9 C 904 323.2 915.6 323.3 929.7 323 C 955.2 322.5 955.6 322.5 963.8 319.5 C 968.3 317.9 972 316.2 972 315.8 C 972 315.3 971.7 315.1 971.3 315.2 C 970.8 315.3 958.4 315.7 943.5 316 Z"/>
        <path d="M 14 319.5 L 14 323 L 48.1 323 C 78.8 323 82.2 322.8 81.6 321.4 C 81.3 320.5 81 319 81 317.9 C 81 316.1 79.9 316 47.5 316 L 14 316 L 14 319.5 Z"/>
        <path d="M 101.2 319.2 L 101.5 322.5 L 126.6 322.8 L 151.7 323 L 152.7 319.5 L 153.8 316 L 127.3 316 L 100.9 316 L 101.2 319.2 Z"/>
        <path d="M 176.6 316.9 C 176.3 317.3 175.6 318.9 175.1 320.3 L 174.1 323 L 221 323.2 C 246.9 323.4 268 323.3 268 323 C 268 322.7 264.3 321 259.7 319.2 L 251.4 316 L 214.3 316 C 193.8 316 176.9 316.4 176.6 316.9 Z"/>
        <path d="M 454.6 319.5 L 457.2 323 L 537.1 323 L 617 323 L 617 319.5 L 617 316 L 534.4 316 L 451.9 316 L 454.6 319.5 Z"/>
        <path d="M 663 319.5 L 663 323 L 742.9 323 L 822.8 323 L 825.4 319.5 L 828.1 316 L 745.6 316 L 663 316 L 663 319.5 Z"/>
        <path d="M 1019.8 319.3 C 1015.5 321.1 1012 322.7 1012 323 C 1012 323.3 1033.1 323.4 1059 323.2 L 1106 323 L 1104.7 319.7 L 1103.4 316.5 L 1065.4 316.3 L 1027.5 316.2 L 1019.8 319.3 Z"/>
        <path d="M 1127.3 319.5 L 1128.3 323 L 1153.1 323 C 1179.6 323 1179 323.1 1179 317.9 C 1179 316.1 1178 316 1152.6 316 L 1126.2 316 L 1127.3 319.5 Z"/>
        <path d="M 1199 317.9 C 1199 319 1198.7 320.5 1198.4 321.4 C 1197.8 322.8 1201.2 323 1231.9 323 L 1266 323 L 1266 319.5 L 1266 316 L 1232.5 316 C 1200.1 316 1199 316.1 1199 317.9 Z"/>
    </g>
</svg>