<?xml version="1.0" encoding="utf-8"?>
<svg xmlns="http://www.w3.org/2000/svg">
    <defs>
        <style>
            :root > view,
            :root > g { display: none; }
            :root > view:target + g,
            :root > g:target { display: block; }
        </style>
    </defs>

    <view id="_logo" viewBox="0 0 162 50" width="162" height="50"/>
    <g id="logo">
        <g fill="currentColor">
            <path d="M 19.163 32.418 C 16.503 35.601 12.467 37.918 7.527 37.918 C 1.136 37.918 -0.589 34.144 0.897 27.13 L 4.139 12.643 L 0 12.643 L 0.01 11.758 L 17.376 0 L 15.059 10.95 L 22.63 10.95 L 22.449 12.643 L 14.877 12.643 L 12.217 24.379 C 10.893 30.637 11.855 32.954 15.825 32.954 C 17.006 32.954 17.955 32.792 19.119 32.363 L 19.159 32.418 L 19.163 32.418 Z"/>
            <path d="M 43.522 32.524 C 40.537 35.976 36.528 37.918 31.534 37.918 C 23.962 37.918 18.851 32.634 20.621 24.273 C 22.288 16.396 28.932 9.871 37.524 9.871 C 42.574 9.871 45.435 12.838 44.6 16.774 C 43.652 21.251 39.383 25.187 32.424 27.615 C 34.847 30.637 38.291 32.631 41.889 32.631 C 42.426 32.631 42.974 32.576 43.481 32.469 L 43.522 32.524 Z M 29.254 14.938 C 28.306 19.415 29.658 23.946 32.171 27.291 C 34.084 25.349 35.132 23.193 35.714 20.443 C 36.706 15.75 34.437 11.758 32.126 11.758 C 30.729 11.758 29.672 12.944 29.251 14.938 L 29.254 14.938 Z"/>
            <path d="M 79.571 36.516 L 83.008 20.281 C 83.898 16.073 83.549 14.67 81.242 14.67 C 80.116 14.67 78.931 14.938 77.74 15.482 C 77.688 16.235 77.569 17.046 77.374 17.964 L 73.447 36.519 L 62.709 36.519 L 66.146 20.285 C 67.036 16.076 66.686 14.674 64.379 14.674 C 63.304 14.674 62.185 14.89 61.062 15.375 L 56.588 36.519 L 45.846 36.519 L 50.012 16.833 L 47.51 14.189 L 62.339 9.334 L 61.196 14.729 C 66.286 11.222 69.477 9.603 72.482 9.603 C 76.135 9.603 77.788 11.435 77.743 14.942 C 83.029 11.273 86.284 9.603 89.344 9.603 C 93.907 9.603 95.4 12.463 94.232 17.964 L 90.306 36.519 L 79.568 36.519 L 79.571 36.516 Z"/>
            <path d="M 129.176 22.653 C 127.167 32.146 120.735 37.918 113.488 37.918 C 111.016 37.918 109.031 37.162 107.456 35.976 L 104.489 50 L 93.747 50 L 100.768 16.829 L 98.265 14.185 L 113.094 9.331 L 111.965 14.67 C 115.425 11.758 119.157 9.871 122.323 9.871 C 127.745 9.871 130.946 14.296 129.176 22.653 Z M 117.035 25.727 C 118.565 18.5 117.77 14.887 114.173 14.887 C 113.368 14.887 112.622 15.103 111.804 15.427 L 107.648 35.061 C 108.285 35.601 109.195 35.869 110.109 35.869 C 112.903 35.869 115.665 32.201 117.035 25.731 L 117.035 25.727 Z"/>
            <path d="M 131.637 23.733 C 133.27 16.021 140.585 9.871 149.338 9.871 C 158.091 9.871 163.448 15.265 161.655 23.733 C 159.987 31.606 153.658 37.918 143.454 37.918 C 135.721 37.918 129.795 32.418 131.633 23.733 L 131.637 23.733 Z M 152.665 33.226 C 153.624 28.694 148.174 11.813 143.45 11.813 C 142.108 11.813 141.099 12.783 140.743 14.457 C 139.623 19.741 145.477 35.979 149.883 35.979 C 151.33 35.979 152.279 35.061 152.665 33.229 L 152.665 33.226 Z"/>
        </g>
    </g>

    <view id="_rows-1" viewBox="0 0 26 32" width="26" height="32"/>
    <g id="rows-1">
        <path d="M 25 15 L 12 15 C 11.23 15 10.749 15.833 11.134 16.5 C 11.313 16.809 11.643 17 12 17 L 25 17 C 25.77 17 26.251 16.167 25.866 15.5 C 25.687 15.191 25.357 15 25 15 Z"/>
        <path d="M 20 25 L 1 25 C 0.23 25 -0.251 25.833 0.134 26.5 C 0.313 26.809 0.643 27 1 27 L 20 27 C 20.77 27 21.251 26.167 20.866 25.5 C 20.687 25.191 20.357 25 20 25 Z"/>
        <path d="M 1 7 L 25 7 C 25.77 7 26.251 6.167 25.866 5.5 C 25.687 5.191 25.357 5 25 5 L 1 5 C 0.23 5 -0.251 5.833 0.134 6.5 C 0.313 6.809 0.643 7 1 7 Z"/>
        <path d="M 1.71 19.29 C 1.163 18.743 0.23 18.994 0.03 19.74 C -0.063 20.087 0.036 20.456 0.29 20.71 L 3.29 23.71 C 3.681 24.104 4.319 24.104 4.71 23.71 L 7.71 20.71 C 8.257 20.163 8.006 19.23 7.26 19.03 C 6.913 18.937 6.544 19.036 6.29 19.29 L 5 20.59 L 5 11.41 L 6.29 12.71 C 6.681 13.104 7.319 13.104 7.71 12.71 C 8.104 12.319 8.104 11.681 7.71 11.29 L 4.71 8.29 C 4.319 7.896 3.681 7.896 3.29 8.29 L 0.29 11.29 C -0.257 11.837 -0.006 12.77 0.74 12.97 C 1.087 13.063 1.456 12.964 1.71 12.71 L 3 11.41 L 3 20.59 L 1.71 19.29 Z"/>
    </g>

    <view id="_rows-3" viewBox="0 0 26 32" width="26" height="32"/>
    <g id="rows-3">
        <path d="M 25 15 L 12 15 C 11.23 15 10.749 15.833 11.134 16.5 C 11.313 16.809 11.643 17 12 17 L 25 17 C 25.77 17 26.251 16.167 25.866 15.5 C 25.687 15.191 25.357 15 25 15 Z"/>
        <path d="M 25 20 L 12 20 C 11.23 20 10.749 20.833 11.134 21.5 C 11.313 21.809 11.643 22 12 22 L 25 22 C 25.77 22 26.251 21.167 25.866 20.5 C 25.687 20.191 25.357 20 25 20 Z"/>
        <path d="M 20 25 L 1 25 C 0.23 25 -0.251 25.833 0.134 26.5 C 0.313 26.809 0.643 27 1 27 L 20 27 C 20.77 27 21.251 26.167 20.866 25.5 C 20.687 25.191 20.357 25 20 25 Z"/>
        <path d="M 25 10 L 12 10 C 11.23 10 10.749 10.833 11.134 11.5 C 11.313 11.809 11.643 12 12 12 L 25 12 C 25.77 12 26.251 11.167 25.866 10.5 C 25.687 10.191 25.357 10 25 10 Z"/>
        <path d="M 1 7 L 25 7 C 25.77 7 26.251 6.167 25.866 5.5 C 25.687 5.191 25.357 5 25 5 L 1 5 C 0.23 5 -0.251 5.833 0.134 6.5 C 0.313 6.809 0.643 7 1 7 Z"/>
        <path d="M 1.71 19.29 C 1.163 18.743 0.23 18.994 0.03 19.74 C -0.063 20.087 0.036 20.456 0.29 20.71 L 3.29 23.71 C 3.681 24.104 4.319 24.104 4.71 23.71 L 7.71 20.71 C 8.257 20.163 8.006 19.23 7.26 19.03 C 6.913 18.937 6.544 19.036 6.29 19.29 L 5 20.59 L 5 11.41 L 6.29 12.71 C 6.681 13.104 7.319 13.104 7.71 12.71 C 8.104 12.319 8.104 11.681 7.71 11.29 L 4.71 8.29 C 4.319 7.896 3.681 7.896 3.29 8.29 L 0.29 11.29 C -0.257 11.837 -0.006 12.77 0.74 12.97 C 1.087 13.063 1.456 12.964 1.71 12.71 L 3 11.41 L 3 20.59 L 1.71 19.29 Z"/>
    </g>

    <view id="_w-off" viewBox="0 0 32 32" width="32" height="32"/>
    <g id="w-off">
        <path d="M 12.694 12.244 L 10.304 5 L 8.087 5 L 5.436 13.016 L 2.996 5.032 L 0.216 5.032 L 4.241 16.908 L 6.498 16.908 L 9.16 9.196 L 11.82 16.908 L 14.075 16.908 L 14.139 16.718 L 12.694 12.244 Z M 15.391 5.032 L 13.724 10.487 L 14.958 14.3 L 18.101 5.032 L 15.391 5.032 Z"/>
        <path d="M 27.982 19 L 4.017 19 C 1.802 19 0 20.802 0 23.017 C 0 25.232 1.802 27.034 4.017 27.034 L 27.982 27.034 C 30.199 27.034 32 25.232 32 23.017 C 32 20.802 30.199 19 27.982 19 Z"/>
        <circle fill="#ecf0f1" cx="4.478" cy="23.017" r="2.678"/>
        <path fill="#cc0000" d="M 18.839 16.908 C 18.156 16.908 17.601 16.353 17.601 15.67 C 17.601 15.503 17.636 15.346 17.697 15.193 L 20.891 5.761 C 21.082 5.3 21.535 5 22.032 5 C 22.716 5 23.271 5.555 23.271 6.238 C 23.271 6.405 23.241 6.562 23.175 6.715 L 19.981 16.147 C 19.789 16.608 19.343 16.908 18.839 16.908 Z"/>
        <path d="M 26.046 16.908 C 25.342 16.908 24.77 16.336 24.77 15.632 C 24.77 15.289 24.902 14.969 25.144 14.729 L 28.919 10.954 L 25.144 7.177 C 24.902 6.937 24.77 6.617 24.77 6.276 C 24.77 5.572 25.342 5 26.046 5 C 26.387 5 26.708 5.133 26.948 5.374 L 31.626 10.052 C 31.866 10.293 32 10.613 32 10.954 C 32 11.295 31.866 11.616 31.626 11.857 L 26.948 16.534 C 26.708 16.776 26.387 16.908 26.046 16.908 Z"/>
    </g>

    <view id="_w-on" viewBox="0 0 32 32" width="32" height="32"/>
    <g id="w-on">
        <path d="M 12.694 12.244 L 10.304 5 L 8.087 5 L 5.436 13.016 L 2.996 5.032 L 0.216 5.032 L 4.241 16.908 L 6.498 16.908 L 9.16 9.196 L 11.82 16.908 L 14.075 16.908 L 14.139 16.718 L 12.694 12.244 Z M 15.391 5.032 L 13.724 10.487 L 14.958 14.3 L 18.101 5.032 L 15.391 5.032 Z"/>
        <path fill="#33855d" d="M 27.982 19 L 4.017 19 C 1.802 19 0 20.802 0 23.017 C 0 25.232 1.802 27.034 4.017 27.034 L 27.982 27.034 C 30.199 27.034 32 25.232 32 23.017 C 32 20.802 30.199 19 27.982 19 Z"/>
        <circle fill="#ecf0f1" cx="27.507" cy="23.017" r="2.678"/>
        <path fill="#33855d" d="M 18.839 16.908 C 18.156 16.908 17.601 16.353 17.601 15.67 C 17.601 15.503 17.636 15.346 17.697 15.193 L 20.891 5.761 C 21.082 5.3 21.535 5 22.032 5 C 22.716 5 23.271 5.555 23.271 6.238 C 23.271 6.405 23.241 6.562 23.175 6.715 L 19.981 16.147 C 19.789 16.608 19.343 16.908 18.839 16.908 Z"/>
        <path d="M 26.046 16.908 C 25.342 16.908 24.77 16.336 24.77 15.632 C 24.77 15.289 24.902 14.969 25.144 14.729 L 28.919 10.954 L 25.144 7.177 C 24.902 6.937 24.77 6.617 24.77 6.276 C 24.77 5.572 25.342 5 26.046 5 C 26.387 5 26.708 5.133 26.948 5.374 L 31.626 10.052 C 31.866 10.293 32 10.613 32 10.954 C 32 11.295 31.866 11.616 31.626 11.857 L 26.948 16.534 C 26.708 16.776 26.387 16.908 26.046 16.908 Z"/>
    </g>

    <view id="_flag-en_GB" viewBox="0 0 32 32" width="32" height="32"/>
    <g id="flag-en_GB">
        <rect fill="#f0f0f0" width="32" height="21.334" y="5.3"/>
        <polygon fill="#d80027" points="17.999 5.3 13.999 5.3 13.999 13.967 0 13.967 0 17.967 13.999 17.967 13.999 26.634 17.999 26.634 17.999 17.967 32 17.967 32 13.967 17.999 13.967"/>
        <polygon fill="#0052b4" points="24.612 19.677 32 23.782 32 19.677"/>
        <polygon fill="#0052b4" points="19.478 19.677 32 26.633 32 24.666 23.019 19.677"/>
        <polygon fill="#0052b4" points="28.665 26.633 19.478 21.529 19.478 26.633"/>
        <polygon fill="#f0f0f0" points="19.479 19.676 32 26.634 32 24.666 23.018 19.676"/>
        <polygon fill="#d80027" points="19.479 19.676 32 26.634 32 24.666 23.018 19.676"/>
        <polygon fill="#0052b4" points="5.646 19.677 0 22.814 0 19.677"/>
        <polygon fill="#0052b4" points="12.522 20.561 12.522 26.633 1.593 26.633"/>
        <polygon fill="#d80027" points="8.981 19.676 0 24.666 0 26.634 0 26.634 12.521 19.676"/>
        <polygon fill="#0052b4" points="7.388 12.257 0 8.152 0 12.257"/>
        <polygon fill="#0052b4" points="12.522 12.257 0 5.3 0 7.267 8.981 12.257"/>
        <polygon fill="#0052b4" points="3.335 5.3 12.522 10.404 12.522 5.3"/>
        <polygon fill="#f0f0f0" points="12.521 12.256 0 5.3 0 7.266 8.981 12.256"/>
        <polygon fill="#d80027" points="12.521 12.256 0 5.3 0 7.266 8.981 12.256"/>
        <polygon fill="#0052b4" points="26.354 12.257 32 9.12 32 12.257"/>
        <polygon fill="#0052b4" points="19.478 11.372 19.478 5.3 30.407 5.3"/>
        <polygon fill="#d80027" points="23.018 12.256 32 7.266 32 5.3 32 5.3 19.479 12.256"/>
    </g>

    <view id="_flag-ro_RO" viewBox="0 0 32 32" width="32" height="32"/>
    <g id="flag-ro_RO">
        <rect fill="#ffda44" y="5.333" width="32" height="21.334"/>
        <rect fill="#0052b4" y="5.333" width="10.666" height="21.334"/>
        <rect fill="#d80027" x="21.334" y="5.333" width="10.666" height="21.334"/>
    </g>

    <view id="_calendar" viewBox="0 0 32 32" width="32" height="32"/>
    <g id="calendar">
        <path d="M 4.554 28.563 C 3.864 28.563 3.304 28.003 3.304 27.313 L 3.304 28.91 C 3.304 29.581 3.848 30.125 4.519 30.125 L 27.48 30.125 C 28.151 30.125 28.695 29.581 28.695 28.91 L 28.695 22.58 L 22.713 28.563 L 4.554 28.563 Z"/>
        <path d="M 8.528 15.167 L 6.195 15.167 C 5.758 15.167 5.403 14.812 5.403 14.375 L 5.403 12.042 C 5.403 11.605 5.758 11.25 6.195 11.25 L 8.528 11.25 C 8.965 11.25 9.32 11.605 9.32 12.042 L 9.32 14.375 C 9.32 14.812 8.965 15.167 8.528 15.167 Z"/>
        <path d="M 14.287 15.167 L 11.954 15.167 C 11.516 15.167 11.162 14.812 11.162 14.375 L 11.162 12.042 C 11.162 11.605 11.516 11.25 11.954 11.25 L 14.287 11.25 C 14.724 11.25 15.079 11.605 15.079 12.042 L 15.079 14.375 C 15.079 14.812 14.724 15.167 14.287 15.167 Z"/>
        <path d="M 20.046 15.167 L 17.713 15.167 C 17.276 15.167 16.921 14.812 16.921 14.375 L 16.921 12.042 C 16.921 11.605 17.276 11.25 17.713 11.25 L 20.046 11.25 C 20.483 11.25 20.838 11.605 20.838 12.042 L 20.838 14.375 C 20.837 14.812 20.483 15.167 20.046 15.167 Z"/>
        <path d="M 25.804 15.167 L 23.472 15.167 C 23.034 15.167 22.68 14.812 22.68 14.375 L 22.68 12.042 C 22.68 11.605 23.034 11.25 23.472 11.25 L 25.804 11.25 C 26.242 11.25 26.596 11.605 26.596 12.042 L 26.596 14.375 C 26.596 14.812 26.242 15.167 25.804 15.167 Z"/>
        <path d="M 8.528 21.071 L 6.195 21.071 C 5.758 21.071 5.403 20.716 5.403 20.279 L 5.403 17.946 C 5.403 17.509 5.758 17.154 6.195 17.154 L 8.528 17.154 C 8.965 17.154 9.32 17.509 9.32 17.946 L 9.32 20.279 C 9.32 20.716 8.965 21.071 8.528 21.071 Z"/>
        <path d="M 14.287 21.071 L 11.954 21.071 C 11.516 21.071 11.162 20.716 11.162 20.279 L 11.162 17.946 C 11.162 17.509 11.516 17.154 11.954 17.154 L 14.287 17.154 C 14.724 17.154 15.079 17.509 15.079 17.946 L 15.079 20.279 C 15.079 20.716 14.724 21.071 14.287 21.071 Z"/>
        <path d="M 20.046 21.071 L 17.713 21.071 C 17.276 21.071 16.921 20.716 16.921 20.279 L 16.921 17.946 C 16.921 17.509 17.276 17.154 17.713 17.154 L 20.046 17.154 C 20.483 17.154 20.838 17.509 20.838 17.946 L 20.838 20.279 C 20.837 20.716 20.483 21.071 20.046 21.071 Z"/>
        <path d="M 25.804 21.071 L 23.472 21.071 C 23.034 21.071 22.68 20.716 22.68 20.279 L 22.68 17.946 C 22.68 17.509 23.034 17.154 23.472 17.154 L 25.804 17.154 C 26.242 17.154 26.596 17.509 26.596 17.946 L 26.596 20.279 C 26.596 20.716 26.242 21.071 25.804 21.071 Z"/>
        <path d="M 8.528 26.975 L 6.195 26.975 C 5.758 26.975 5.403 26.62 5.403 26.183 L 5.403 23.85 C 5.403 23.413 5.758 23.058 6.195 23.058 L 8.528 23.058 C 8.965 23.058 9.32 23.413 9.32 23.85 L 9.32 26.183 C 9.32 26.62 8.965 26.975 8.528 26.975 Z"/>
        <path d="M 14.287 26.975 L 11.954 26.975 C 11.516 26.975 11.162 26.62 11.162 26.183 L 11.162 23.85 C 11.162 23.413 11.516 23.058 11.954 23.058 L 14.287 23.058 C 14.724 23.058 15.079 23.413 15.079 23.85 L 15.079 26.183 C 15.079 26.62 14.724 26.975 14.287 26.975 Z"/>
        <path d="M 20.046 26.975 L 17.713 26.975 C 17.276 26.975 16.921 26.62 16.921 26.183 L 16.921 23.85 C 16.921 23.413 17.276 23.058 17.713 23.058 L 20.046 23.058 C 20.483 23.058 20.838 23.413 20.838 23.85 L 20.838 26.183 C 20.837 26.62 20.483 26.975 20.046 26.975 Z"/>
        <path d="M 27.445 3.437 L 4.554 3.437 C 3.864 3.437 3.304 3.997 3.304 4.687 L 3.304 9.686 C 3.304 9.687 3.305 9.687 3.306 9.687 L 28.694 9.687 C 28.695 9.687 28.695 9.687 28.695 9.686 L 28.695 4.687 C 28.695 3.997 28.136 3.437 27.445 3.437 Z M 7.241 7.045 C 6.649 7.045 6.17 6.565 6.17 5.973 C 6.17 5.381 6.649 4.902 7.241 4.902 C 7.832 4.902 8.312 5.381 8.312 5.973 C 8.312 6.565 7.832 7.045 7.241 7.045 Z M 24.759 7.045 C 24.167 7.045 23.687 6.565 23.687 5.973 C 23.687 5.381 24.167 4.902 24.759 4.902 C 25.35 4.902 25.83 5.381 25.83 5.973 C 25.83 6.565 25.35 7.045 24.759 7.045 Z"/>
        <path d="M 7.241 6.286 C 6.591 6.286 6.062 5.757 6.062 5.107 L 6.062 2.741 C 6.062 2.091 6.591 1.563 7.241 1.563 C 7.891 1.563 8.419 2.091 8.419 2.741 L 8.419 3.437 C 8.419 3.61 8.28 3.75 8.107 3.75 C 7.934 3.75 7.794 3.61 7.794 3.437 L 7.794 2.741 C 7.794 2.436 7.546 2.187 7.241 2.187 C 6.936 2.187 6.687 2.436 6.687 2.741 L 6.687 5.107 C 6.687 5.412 6.936 5.661 7.241 5.661 C 7.413 5.661 7.553 5.801 7.553 5.973 C 7.553 6.146 7.413 6.286 7.241 6.286 Z"/>
        <path d="M 24.759 6.286 C 24.109 6.286 23.58 5.757 23.58 5.107 L 23.58 2.741 C 23.58 2.091 24.109 1.563 24.759 1.563 C 25.409 1.563 25.937 2.091 25.937 2.741 L 25.937 3.437 C 25.937 3.61 25.797 3.75 25.625 3.75 C 25.452 3.75 25.312 3.61 25.312 3.437 L 25.312 2.741 C 25.312 2.436 25.064 2.187 24.759 2.187 C 24.453 2.187 24.205 2.436 24.205 2.741 L 24.205 5.107 C 24.205 5.412 24.454 5.661 24.759 5.661 C 24.931 5.661 25.071 5.801 25.071 5.973 C 25.071 6.146 24.931 6.286 24.759 6.286 Z"/>
        <path d="M 28.694 10 L 3.306 10 C 3.133 10 2.992 9.859 2.992 9.686 L 2.992 4.687 C 2.992 3.826 3.693 3.125 4.554 3.125 L 27.445 3.125 C 28.307 3.125 29.008 3.826 29.008 4.687 L 29.008 9.686 C 29.008 9.859 28.867 10 28.694 10 Z M 3.617 9.375 L 28.383 9.375 L 28.383 4.687 C 28.383 4.171 27.962 3.75 27.445 3.75 L 4.554 3.75 C 4.037 3.75 3.617 4.171 3.617 4.687 L 3.617 9.375 Z"/>
        <path d="M 27.48 30.437 L 4.519 30.437 C 3.677 30.437 2.992 29.752 2.992 28.91 L 2.992 9.687 C 2.992 9.515 3.132 9.375 3.304 9.375 L 28.695 9.375 C 28.868 9.375 29.008 9.515 29.008 9.687 L 29.008 28.91 C 29.008 29.752 28.322 30.437 27.48 30.437 Z M 3.617 10 L 3.617 28.91 C 3.617 29.408 4.022 29.813 4.519 29.813 L 27.48 29.813 C 27.978 29.813 28.383 29.408 28.383 28.91 L 28.383 10 L 3.617 10 Z"/>
        <path d="M 22.713 28.875 L 4.554 28.875 C 3.693 28.875 2.992 28.174 2.992 27.313 L 2.992 9.687 C 2.992 9.515 3.132 9.375 3.304 9.375 L 28.695 9.375 C 28.868 9.375 29.008 9.515 29.008 9.687 L 29.008 22.58 C 29.008 22.663 28.975 22.743 28.916 22.801 L 22.934 28.783 C 22.876 28.842 22.796 28.875 22.713 28.875 Z M 3.617 10 L 3.617 27.313 C 3.617 27.829 4.037 28.25 4.554 28.25 L 22.584 28.25 L 28.383 22.451 L 28.383 10 L 3.617 10 Z M 28.695 22.58 L 28.696 22.58 L 28.695 22.58 Z"/>
        <path d="M 22.713 28.875 C 22.673 28.875 22.632 28.867 22.594 28.851 C 22.477 28.803 22.401 28.689 22.401 28.563 L 22.401 23.604 C 22.401 22.867 23 22.268 23.737 22.268 L 28.695 22.268 C 28.822 22.268 28.936 22.344 28.984 22.461 C 29.032 22.578 29.006 22.712 28.916 22.801 L 22.934 28.783 C 22.874 28.843 22.794 28.875 22.713 28.875 Z M 23.737 22.893 C 23.345 22.893 23.026 23.212 23.026 23.604 L 23.026 27.808 L 27.941 22.893 L 23.737 22.893 Z"/>
    </g>

    <view id="_jira-status" viewBox="0 0 32 32" width="32" height="32"/>
    <g id="jira-status">
        <path fill="currentColor" d="M 31.616 15.104 L 17.379 1.334 L 16 0 L 0.384 15.104 C -0.128 15.599 -0.128 16.401 0.384 16.894 L 10.173 26.365 L 16 32 L 31.616 16.894 C 32.128 16.401 32.128 15.599 31.616 15.104 Z M 16 20.729 L 11.109 16.001 L 16 11.269 L 20.891 16.001 L 16 20.729 Z"/>
    </g>

    <view id="_db-status" viewBox="0 0 32 32" width="32" height="32"/>
    <g id="db-status">
        <path fill="currentColor" d="M 29.929 8.925 L 19.111 15.693 C 18.148 16.296 17.068 16.597 15.987 16.597 C 14.907 16.597 13.827 16.296 12.864 15.693 L 2.047 8.925 C 2.016 9.098 2 9.276 2 9.455 L 2 12.135 L 13.858 19.555 C 15.171 20.377 16.804 20.377 18.117 19.555 L 29.975 12.135 L 29.975 9.455 C 29.975 9.275 29.959 9.098 29.929 8.925 Z"/>
        <path fill="currentColor" d="M 15.987 22.047 C 14.907 22.047 13.827 21.746 12.864 21.143 L 2 14.346 L 2 17.523 L 13.858 24.942 C 15.171 25.764 16.804 25.764 18.117 24.942 L 29.975 17.523 L 29.975 14.346 L 19.111 21.143 C 18.148 21.746 17.068 22.047 15.987 22.047 Z"/>
        <path fill="currentColor" d="M 18.117 14.104 L 29.03 7.277 C 28.908 7.166 28.778 7.064 28.638 6.976 L 18.778 0.807 C 17.918 0.269 16.952 0 15.988 0 C 15.023 0 14.057 0.269 13.197 0.807 L 3.337 6.976 C 3.197 7.064 3.066 7.166 2.945 7.276 L 13.857 14.104 C 15.171 14.926 16.804 14.926 18.117 14.104 Z"/>
        <path fill="currentColor" d="M 15.988 27.435 C 14.907 27.435 13.827 27.134 12.864 26.531 L 2 19.733 L 2 22.544 C 2 23.562 2.508 24.504 3.337 25.023 L 13.197 31.192 C 14.057 31.73 15.022 32 15.987 32 C 16.952 32 17.918 31.73 18.778 31.192 L 28.638 25.023 C 29.467 24.504 29.975 23.562 29.975 22.544 L 29.975 19.733 L 19.111 26.531 C 18.148 27.134 17.068 27.435 15.988 27.435 Z"/>
    </g>

    <view id="_db-delete" viewBox="0 0 32 32" width="32" height="32"/>
    <g id="db-delete">
        <polygon fill="#e0230d" points="32 5.645 21.645 16 32 26.355 30.634 27.721 13.119 16 30.634 4.28"/>
        <polygon fill="#ff5440" points="30.634 4.28 18.913 16 30.634 27.721 26.355 32 16 21.645 5.645 32 0 26.355 10.355 16 0 5.645 5.645 0 16 10.355 26.355 0"/>
    </g>

    <view id="_lock" viewBox="0 0 32 32" width="32" height="32"/>
    <g id="lock">
        <path d="M 28.453 15.182 C 28.029 14.758 27.514 14.546 26.908 14.546 L 26.181 14.546 L 26.181 10.182 C 26.181 7.394 25.181 5 23.181 3 C 21.181 1 18.788 0 16 0 C 13.211 0 10.817 1 8.818 3 C 6.818 5 5.818 7.394 5.818 10.182 L 5.818 14.546 L 5.091 14.546 C 4.485 14.546 3.97 14.758 3.545 15.182 C 3.121 15.606 2.909 16.121 2.909 16.727 L 2.909 29.818 C 2.909 30.424 3.121 30.939 3.545 31.364 C 3.97 31.788 4.485 32 5.091 32 L 26.908 32 C 27.515 32 28.03 31.788 28.454 31.364 C 28.878 30.939 29.09 30.424 29.09 29.818 L 29.09 16.727 C 29.091 16.121 28.878 15.606 28.453 15.182 Z M 21.818 14.546 L 10.182 14.546 L 10.182 10.182 C 10.182 8.576 10.75 7.204 11.886 6.068 C 13.023 4.932 14.394 4.364 16 4.364 C 17.606 4.364 18.977 4.932 20.113 6.068 C 21.249 7.204 21.818 8.576 21.818 10.182 L 21.818 14.546 Z"/>
    </g>
</svg>
